<svg width="246" height="34" viewBox="0 0 246 34" fill="none" xmlns="http://www.w3.org/2000/svg">
<g clip-path="url(#clip0_320_422)">
<path d="M28.8496 0V33.5492H24.9222L4.79274 8.55371V33.5492H0V0H3.92738L24.0569 24.9955V0H28.8496Z" fill="#1E1E1E"/>
<path d="M103.137 0L88.4261 33.5492H83.68L68.9224 0H74.0945L86.1762 27.5782L98.3445 0H103.137Z" fill="#1E1E1E"/>
<path d="M108.123 33.5492V0H112.889V33.5492H108.123Z" fill="#1E1E1E"/>
<path d="M142.671 22.3129C142.99 22.1998 143.29 22.08 143.589 21.9468C145.55 21.1237 147.219 19.7327 148.382 17.9529C149.539 16.0752 150.122 13.9003 150.059 11.6957C150.118 9.48526 149.535 7.30516 148.382 5.41852C147.222 3.62795 145.553 2.2254 143.589 1.39129C141.206 0.408736 138.644 -0.0629388 136.067 0.00673332H122.98V33.5559H127.773V23.338H136.067C136.8 23.338 137.505 23.338 138.191 23.2515L145.406 33.5493H150.625L142.671 22.3129ZM135.921 19.2642H127.773V4.1671H135.921C138.992 4.1671 141.317 4.82165 142.897 6.13078C143.692 6.81307 144.32 7.66936 144.731 8.63327C145.142 9.59718 145.325 10.6428 145.267 11.689C145.324 12.739 145.14 13.7881 144.729 14.7561C144.318 15.724 143.692 16.5852 142.897 17.2739C141.313 18.6008 138.987 19.2642 135.921 19.2642Z" fill="#1E1E1E"/>
<path d="M172.678 0H167.939L152.742 33.5492H157.681L161.369 25.1619H179.202L182.889 33.5492H187.922L172.678 0ZM163.053 21.3011L170.282 4.83933L177.518 21.3011H163.053Z" fill="#1E1E1E"/>
<path d="M206.041 0.000264825L201.941 4.07409L197.84 -0.0263672H188.068V4.14066H193.28C194.949 4.14066 196.549 4.80339 197.728 5.98308C198.908 7.16277 199.571 8.76278 199.571 10.4311V33.5228H204.31V10.4577C204.31 8.78941 204.973 7.18941 206.153 6.00971C207.333 4.83002 208.933 4.16729 210.601 4.16729H215.813V0.000264825H206.041Z" fill="#1E1E1E"/>
<path d="M245.388 29.3755V33.5492H221.039V0H244.716V4.16702H225.831V14.4714H242.652V18.5452H225.831V29.3755H245.388Z" fill="#1E1E1E"/>
<path d="M37.5827 33.5493C37.1605 33.5494 36.7449 33.4434 36.3743 33.2412C36.0036 33.039 35.6896 32.747 35.461 32.3919C35.2325 32.0368 35.0967 31.6301 35.0662 31.209C35.0356 30.7878 35.1113 30.3657 35.2862 29.9814L48.1933 1.47791C48.3932 1.03666 48.7163 0.662491 49.1237 0.400355C49.531 0.138219 50.0054 -0.000743203 50.4899 0.00014326H51.9876C52.4763 -0.00506455 52.9561 0.131815 53.3685 0.394159C53.7809 0.656502 54.1083 1.03301 54.3107 1.47791L67.2578 29.9814C67.4309 30.3658 67.5051 30.7875 67.4738 31.2079C67.4424 31.6284 67.3064 32.0344 67.0782 32.3889C66.85 32.7434 66.5369 33.0353 66.1671 33.2379C65.7974 33.4406 65.3829 33.5477 64.9613 33.5493H64.888C64.5567 33.5497 64.2285 33.4846 63.9224 33.3578C63.6162 33.231 63.3381 33.045 63.1041 32.8104L53.1858 22.8921C52.7138 22.4271 52.0777 22.1664 51.4151 22.1664C50.7525 22.1664 50.1165 22.4271 49.6445 22.8921L39.3667 32.877C38.8817 33.324 38.2421 33.5651 37.5827 33.5493Z" fill="#33A852"/>
</g>
<defs>
<clipPath id="clip0_320_422">
<rect width="245.388" height="33.5492" fill="white"/>
</clipPath>
</defs>
</svg>
